<svg width="16" height="12" viewBox="0 0 16 12" fill="none" xmlns="http://www.w3.org/2000/svg">
<path d="M14.9119 6.78149C13.4233 5.88942 11.6348 5.58839 9.93888 5.89676C10.2944 5.58839 10.6165 5.25799 10.9053 4.90924C11.5904 4.73303 13.253 4.23009 14.4897 3.30866C15.2822 2.71762 15.6599 2.11556 15.645 1.46945C15.6413 1.29691 15.508 1.15007 15.334 1.13172C14.8156 1.08032 14.3416 1.29324 13.9861 1.48414C12.7938 2.12657 11.8236 3.04434 10.9053 3.97312C11.3386 2.85345 11.5422 1.64934 11.3941 0.665491C11.3756 0.548017 11.3312 0.232305 11.046 0.074449C10.872 -0.0209987 10.6535 -0.0246693 10.4314 0.0634362C9.85372 0.294713 9.5945 0.867399 9.42046 1.3997C8.89835 2.96358 8.59842 4.60087 8.317 6.19411C8.25035 6.21614 8.19851 6.26387 8.15778 6.3226C7.56161 6.67135 6.96913 6.93567 6.42851 7.13391C6.5544 6.99441 6.66921 6.84389 6.7729 6.68237C7.12097 6.13171 7.33943 5.46358 7.45792 4.58619C7.53198 4.04654 7.59494 3.24625 7.30612 2.50837C7.17651 2.18164 6.93582 1.9834 6.67291 1.99809C6.42111 2.00176 6.25078 2.1743 6.18412 2.23671C5.37319 3.04801 5.05845 4.18237 4.8733 5.08178C4.82887 5.30572 4.78813 5.52965 4.74739 5.75359C4.6215 6.45109 4.4919 7.10821 4.2438 7.72495C2.88484 7.98926 1.53328 8.08472 0.333537 8.13611C0.140985 8.14345 -0.00713982 8.30498 0.000265997 8.49587C0.00767181 8.6831 0.163195 8.82627 0.34834 8.82627C0.352043 8.82627 0.359463 8.82627 0.363166 8.82627C1.65178 8.7712 3.107 8.66841 4.57705 8.36371C4.58446 8.36371 4.59189 8.36005 4.59929 8.36005C4.81406 8.31599 5.02512 8.2646 5.23989 8.20953L5.59535 8.54727C6.76547 9.66327 7.97633 10.8197 9.44268 11.5979C9.50192 11.631 9.64634 11.7044 9.81297 11.7044C9.89813 11.7044 9.99072 11.686 10.0796 11.631C10.1944 11.5612 10.3795 11.3887 10.324 10.9995C10.2129 10.2066 9.73152 9.43934 8.97242 8.84462C8.31701 8.33435 7.5394 8.00395 6.79511 7.72128C7.40239 7.49 7.96892 7.21835 8.49844 6.90998C9.40565 7.26974 10.4277 7.51203 11.694 7.67355C12.094 7.72495 12.5198 7.76533 12.9493 7.76533C13.6011 7.76533 14.2676 7.67356 14.8749 7.38354C14.9896 7.32848 15.0674 7.21467 15.0711 7.08985C15.0859 6.96871 15.023 6.84757 14.9119 6.78149ZM14.3194 2.09721C14.4935 2.00543 14.6823 1.90998 14.8749 1.85859C14.7564 2.1486 14.486 2.44596 14.0676 2.758C13.5529 3.14346 12.8456 3.51057 12.0569 3.81527C12.7494 3.15814 13.4863 2.54875 14.3194 2.09721ZM10.0833 1.6163C10.2092 1.2345 10.3795 0.830689 10.6943 0.705873C10.698 0.720557 10.7017 0.742583 10.7054 0.76828C10.9239 2.24772 10.2388 4.38061 9.13904 5.65447C9.13163 5.65814 9.12423 5.66548 9.11682 5.66915C9.36491 4.31086 9.64635 2.93054 10.0833 1.6163ZM5.43613 5.88208C5.47686 5.66181 5.5176 5.44155 5.56204 5.22495C5.72497 4.432 5.99529 3.43715 6.65811 2.75433C6.65811 2.758 6.65809 2.758 6.66179 2.76167C6.83953 3.21321 6.87287 3.74919 6.7729 4.49808C6.66921 5.27268 6.48406 5.85271 6.18783 6.31893C5.92492 6.73744 5.55464 7.05682 5.15473 7.22569C5.27322 6.77782 5.35467 6.3226 5.43613 5.88208ZM9.60561 10.9041C8.39476 10.2249 7.34314 9.25945 6.33225 8.29396C6.4026 8.31966 6.47665 8.34536 6.55071 8.37473C7.35424 8.67575 8.00226 8.96577 8.55029 9.39528C9.10202 9.82847 9.4723 10.3571 9.60561 10.9041ZM11.7866 6.99808C11.0423 6.9063 10.3906 6.78148 9.80187 6.62363C11.1312 6.32994 12.5791 6.46577 13.8306 7.00909C13.1641 7.13391 12.442 7.07884 11.7866 6.99808Z" fill="white"/>
</svg>
